<?xml version="1.0" encoding="utf-8"?>
<svg version="1.1" xmlns:xlink="http://www.w3.org/1999/xlink" width="116px" height="41px" xmlns="http://www.w3.org/2000/svg">
  <defs>
    <mask fill="white" id="clip7">
      <path d="M 115 0  L 0 0  L 0 40  L 115 40  L 115 0  Z " fill-rule="evenodd" />
    </mask>
  </defs>
  <g transform="matrix(1 0 0 1 -521 -270 )">
    <path d="M 115 0  L 0 0  L 0 40  L 115 40  L 115 0  Z " fill-rule="nonzero" fill="#ffffff" stroke="none" transform="matrix(1 0 0 1 521 270 )" />
    <path d="M 115 0  L 0 0  L 0 40  L 115 40  L 115 0  Z " stroke-width="2" stroke="#797979" fill="none" transform="matrix(1 0 0 1 521 270 )" mask="url(#clip7)" />
    <path d="M 11.5 0  L 11.5 40  M 103.5 0  L 103.5 40  " stroke-width="1" stroke="#797979" fill="none" transform="matrix(1 0 0 1 521 270 )" mask="url(#clip7)" />
  </g>
</svg>