<?xml version="1.0" encoding="utf-8"?>
<svg version="1.1" xmlns:xlink="http://www.w3.org/1999/xlink" width="12px" height="12px" viewBox="2671 1046  12 12" xmlns="http://www.w3.org/2000/svg">
  <path d="M 2677 1046  C 2680.36 1046  2683 1048.64  2683 1052  C 2683 1055.36  2680.36 1058  2677 1058  C 2673.64 1058  2671 1055.36  2671 1052  C 2671 1048.64  2673.64 1046  2677 1046  Z " fill-rule="nonzero" fill="#f0f0f0" stroke="none" />
  <path d="M 2677 1046.5  C 2680.08 1046.5  2682.5 1048.92  2682.5 1052  C 2682.5 1055.08  2680.08 1057.5  2677 1057.5  C 2673.92 1057.5  2671.5 1055.08  2671.5 1052  C 2671.5 1048.92  2673.92 1046.5  2677 1046.5  Z " stroke-width="1" stroke="#797979" fill="none" />
  <path d="M 2677 1055  C 2675.32 1055  2674 1053.68  2674 1052  C 2674 1050.32  2675.32 1049  2677 1049  C 2678.68 1049  2680 1050.32  2680 1052  C 2680 1053.68  2678.68 1055  2677 1055  " fill-rule="nonzero" fill="#797979" stroke="none" />
</svg>