<?xml version="1.0" encoding="utf-8"?>
<svg version="1.1" xmlns:xlink="http://www.w3.org/1999/xlink" width="12px" height="12px" viewBox="2671 1016  12 12" xmlns="http://www.w3.org/2000/svg">
  <path d="M 2677 1016  C 2680.36 1016  2683 1018.64  2683 1022  C 2683 1025.36  2680.36 1028  2677 1028  C 2673.64 1028  2671 1025.36  2671 1022  C 2671 1018.64  2673.64 1016  2677 1016  Z " fill-rule="nonzero" fill="#ffffff" stroke="none" />
  <path d="M 2677 1016.5  C 2680.08 1016.5  2682.5 1018.92  2682.5 1022  C 2682.5 1025.08  2680.08 1027.5  2677 1027.5  C 2673.92 1027.5  2671.5 1025.08  2671.5 1022  C 2671.5 1018.92  2673.92 1016.5  2677 1016.5  Z " stroke-width="1" stroke="#797979" fill="none" />
  <path d="M 2677 1025  C 2675.32 1025  2674 1023.68  2674 1022  C 2674 1020.32  2675.32 1019  2677 1019  C 2678.68 1019  2680 1020.32  2680 1022  C 2680 1023.68  2678.68 1025  2677 1025  " fill-rule="nonzero" fill="#797979" stroke="none" />
</svg>