<?xml version="1.0" encoding="utf-8"?>
<svg version="1.1" xmlns:xlink="http://www.w3.org/1999/xlink" width="12px" height="12px" viewBox="2671 1135  12 12" xmlns="http://www.w3.org/2000/svg">
  <path d="M 2677 1135  C 2680.36 1135  2683 1137.64  2683 1141  C 2683 1144.36  2680.36 1147  2677 1147  C 2673.64 1147  2671 1144.36  2671 1141  C 2671 1137.64  2673.64 1135  2677 1135  Z " fill-rule="nonzero" fill="#ffffff" stroke="none" />
  <path d="M 2677 1135.5  C 2680.08 1135.5  2682.5 1137.92  2682.5 1141  C 2682.5 1144.08  2680.08 1146.5  2677 1146.5  C 2673.92 1146.5  2671.5 1144.08  2671.5 1141  C 2671.5 1137.92  2673.92 1135.5  2677 1135.5  Z " stroke-width="1" stroke="#797979" fill="none" />
  <path d="M 2677 1144  C 2675.32 1144  2674 1142.68  2674 1141  C 2674 1139.32  2675.32 1138  2677 1138  C 2678.68 1138  2680 1139.32  2680 1141  C 2680 1142.68  2678.68 1144  2677 1144  " fill-rule="nonzero" fill="#797979" stroke="none" />
</svg>