<?xml version="1.0" encoding="utf-8"?>
<svg version="1.1" xmlns:xlink="http://www.w3.org/1999/xlink" width="12px" height="12px" viewBox="2671 1195  12 12" xmlns="http://www.w3.org/2000/svg">
  <path d="M 2677 1195  C 2680.36 1195  2683 1197.64  2683 1201  C 2683 1204.36  2680.36 1207  2677 1207  C 2673.64 1207  2671 1204.36  2671 1201  C 2671 1197.64  2673.64 1195  2677 1195  Z " fill-rule="nonzero" fill="#ffffff" stroke="none" />
  <path d="M 2677 1195.5  C 2680.08 1195.5  2682.5 1197.92  2682.5 1201  C 2682.5 1204.08  2680.08 1206.5  2677 1206.5  C 2673.92 1206.5  2671.5 1204.08  2671.5 1201  C 2671.5 1197.92  2673.92 1195.5  2677 1195.5  Z " stroke-width="1" stroke="#797979" fill="none" />
  <path d="M 2677 1204  C 2675.32 1204  2674 1202.68  2674 1201  C 2674 1199.32  2675.32 1198  2677 1198  C 2678.68 1198  2680 1199.32  2680 1201  C 2680 1202.68  2678.68 1204  2677 1204  " fill-rule="nonzero" fill="#797979" stroke="none" />
</svg>