<?xml version="1.0" encoding="utf-8"?>
<svg version="1.1" xmlns:xlink="http://www.w3.org/1999/xlink" width="12px" height="12px" viewBox="2671 1165  12 12" xmlns="http://www.w3.org/2000/svg">
  <path d="M 2677 1165  C 2680.36 1165  2683 1167.64  2683 1171  C 2683 1174.36  2680.36 1177  2677 1177  C 2673.64 1177  2671 1174.36  2671 1171  C 2671 1167.64  2673.64 1165  2677 1165  Z " fill-rule="nonzero" fill="#f0f0f0" stroke="none" />
  <path d="M 2677 1165.5  C 2680.08 1165.5  2682.5 1167.92  2682.5 1171  C 2682.5 1174.08  2680.08 1176.5  2677 1176.5  C 2673.92 1176.5  2671.5 1174.08  2671.5 1171  C 2671.5 1167.92  2673.92 1165.5  2677 1165.5  Z " stroke-width="1" stroke="#797979" fill="none" />
  <path d="M 2677 1174  C 2675.32 1174  2674 1172.68  2674 1171  C 2674 1169.32  2675.32 1168  2677 1168  C 2678.68 1168  2680 1169.32  2680 1171  C 2680 1172.68  2678.68 1174  2677 1174  " fill-rule="nonzero" fill="#797979" stroke="none" />
</svg>