<?xml version="1.0" encoding="utf-8"?>
<svg version="1.1" xmlns:xlink="http://www.w3.org/1999/xlink" width="12px" height="12px" viewBox="2671 1076  12 12" xmlns="http://www.w3.org/2000/svg">
  <path d="M 2677 1076  C 2680.36 1076  2683 1078.64  2683 1082  C 2683 1085.36  2680.36 1088  2677 1088  C 2673.64 1088  2671 1085.36  2671 1082  C 2671 1078.64  2673.64 1076  2677 1076  Z " fill-rule="nonzero" fill="#ffffff" stroke="none" />
  <path d="M 2677 1076.5  C 2680.08 1076.5  2682.5 1078.92  2682.5 1082  C 2682.5 1085.08  2680.08 1087.5  2677 1087.5  C 2673.92 1087.5  2671.5 1085.08  2671.5 1082  C 2671.5 1078.92  2673.92 1076.5  2677 1076.5  Z " stroke-width="1" stroke="#797979" fill="none" />
  <path d="M 2677 1085  C 2675.32 1085  2674 1083.68  2674 1082  C 2674 1080.32  2675.32 1079  2677 1079  C 2678.68 1079  2680 1080.32  2680 1082  C 2680 1083.68  2678.68 1085  2677 1085  " fill-rule="nonzero" fill="#797979" stroke="none" />
</svg>