<?xml version="1.0" encoding="utf-8"?>
<svg version="1.1" xmlns:xlink="http://www.w3.org/1999/xlink" width="12px" height="12px" viewBox="2671 1106  12 12" xmlns="http://www.w3.org/2000/svg">
  <path d="M 2677 1106  C 2680.36 1106  2683 1108.64  2683 1112  C 2683 1115.36  2680.36 1118  2677 1118  C 2673.64 1118  2671 1115.36  2671 1112  C 2671 1108.64  2673.64 1106  2677 1106  Z " fill-rule="nonzero" fill="#f0f0f0" stroke="none" />
  <path d="M 2677 1106.5  C 2680.08 1106.5  2682.5 1108.92  2682.5 1112  C 2682.5 1115.08  2680.08 1117.5  2677 1117.5  C 2673.92 1117.5  2671.5 1115.08  2671.5 1112  C 2671.5 1108.92  2673.92 1106.5  2677 1106.5  Z " stroke-width="1" stroke="#797979" fill="none" />
  <path d="M 2677 1115  C 2675.32 1115  2674 1113.68  2674 1112  C 2674 1110.32  2675.32 1109  2677 1109  C 2678.68 1109  2680 1110.32  2680 1112  C 2680 1113.68  2678.68 1115  2677 1115  " fill-rule="nonzero" fill="#797979" stroke="none" />
</svg>