<?xml version="1.0" encoding="utf-8"?>
<svg version="1.1" xmlns:xlink="http://www.w3.org/1999/xlink" width="12px" height="12px" viewBox="2671 1225  12 12" xmlns="http://www.w3.org/2000/svg">
  <path d="M 2677 1225  C 2680.36 1225  2683 1227.64  2683 1231  C 2683 1234.36  2680.36 1237  2677 1237  C 2673.64 1237  2671 1234.36  2671 1231  C 2671 1227.64  2673.64 1225  2677 1225  Z " fill-rule="nonzero" fill="#f0f0f0" stroke="none" />
  <path d="M 2677 1225.5  C 2680.08 1225.5  2682.5 1227.92  2682.5 1231  C 2682.5 1234.08  2680.08 1236.5  2677 1236.5  C 2673.92 1236.5  2671.5 1234.08  2671.5 1231  C 2671.5 1227.92  2673.92 1225.5  2677 1225.5  Z " stroke-width="1" stroke="#797979" fill="none" />
  <path d="M 2677 1234  C 2675.32 1234  2674 1232.68  2674 1231  C 2674 1229.32  2675.32 1228  2677 1228  C 2678.68 1228  2680 1229.32  2680 1231  C 2680 1232.68  2678.68 1234  2677 1234  " fill-rule="nonzero" fill="#797979" stroke="none" />
</svg>