<?xml version="1.0" encoding="utf-8"?>
<svg version="1.1" xmlns:xlink="http://www.w3.org/1999/xlink" width="33px" height="33px" xmlns="http://www.w3.org/2000/svg">
  <g transform="matrix(1 0 0 1 -4951 -1804 )">
    <path d="M 8.2177734375 2.212890625  C 10.7457682291667 0.73763020833333  13.5065104166667 0  16.5 0  C 19.4934895833333 0  22.2542317708333 0.73763020833333  24.7822265625 2.212890625  C 27.3102213541667 3.68815104166666  29.3118489583333 5.68977864583333  30.787109375 8.2177734375  C 32.2623697916667 10.7457682291667  33 13.5065104166667  33 16.5  C 33 19.4934895833333  32.2623697916667 22.2542317708333  30.787109375 24.7822265625  C 29.3118489583333 27.3102213541667  27.3102213541667 29.3118489583333  24.7822265625 30.787109375  C 22.2542317708333 32.2623697916667  19.4934895833333 33  16.5 33  C 13.5065104166667 33  10.7457682291667 32.2623697916667  8.2177734375 30.787109375  C 5.68977864583333 29.3118489583333  3.68815104166667 27.3102213541667  2.212890625 24.7822265625  C 0.737630208333333 22.2542317708333  0 19.4934895833333  0 16.5  C 0 13.5065104166667  0.737630208333333 10.7457682291667  2.212890625 8.2177734375  C 3.68815104166667 5.68977864583333  5.68977864583333 3.68815104166666  8.2177734375 2.212890625  Z M 19.056640625 27.2958984375  C 19.185546875 27.1598307291667  19.25 26.9915364583333  19.25 26.791015625  L 19.25 22.708984375  C 19.25 22.5084635416667  19.185546875 22.3401692708333  19.056640625 22.2041015625  C 18.927734375 22.0680338541667  18.7701822916667 22  18.583984375 22  L 14.458984375 22  C 14.2727864583333 22  14.1080729166667 22.0716145833333  13.96484375 22.21484375  C 13.8216145833333 22.3580729166667  13.75 22.5227864583333  13.75 22.708984375  L 13.75 26.791015625  C 13.75 26.9772135416667  13.8216145833333 27.1419270833333  13.96484375 27.28515625  C 14.1080729166667 27.4283854166667  14.2727864583333 27.5  14.458984375 27.5  L 18.583984375 27.5  C 18.7701822916667 27.5  18.927734375 27.4319661458333  19.056640625 27.2958984375  Z M 18.9814453125 19.7763671875  C 19.1175130208333 19.6689453125  19.1927083333333 19.5436197916667  19.20703125 19.400390625  L 19.59375 6.05859375  C 19.59375 5.88671875  19.5221354166667 5.7578125  19.37890625 5.671875  C 19.2356770833333 5.55729166666666  19.0638020833333 5.5  18.86328125 5.5  L 14.13671875 5.5  C 13.9361979166667 5.5  13.7643229166667 5.55729166666666  13.62109375 5.671875  C 13.4778645833333 5.7578125  13.40625 5.88671875  13.40625 6.05859375  L 13.771484375 19.400390625  C 13.771484375 19.5436197916667  13.8430989583333 19.6689453125  13.986328125 19.7763671875  C 14.1295572916667 19.8837890625  14.3014322916667 19.9375  14.501953125 19.9375  L 18.4765625 19.9375  C 18.6770833333333 19.9375  18.8453776041667 19.8837890625  18.9814453125 19.7763671875  Z " fill-rule="nonzero" fill="#d9001b" stroke="none" transform="matrix(1 0 0 1 4951 1804 )" />
  </g>
</svg>