<?xml version="1.0" encoding="utf-8"?>
<svg version="1.1" xmlns:xlink="http://www.w3.org/1999/xlink" width="39px" height="42px" xmlns="http://www.w3.org/2000/svg">
  <g transform="matrix(1 0 0 1 4430 -811 )">
    <path d="M -4430 811  L -4391 811  L -4391 853  L -4430 853  L -4430 811  " fill-rule="nonzero" fill="#cccccc" stroke="none" />
    <path d="M -4427 814  L -4394 814  L -4394 850  L -4427 850  L -4427 814  " fill-rule="nonzero" fill="#ffffff" stroke="none" />
    <path d="M -4406.795 823.15  C -4408.433 823.15  -4409.72 821.863  -4409.72 820.225  C -4409.72 818.587  -4408.433 817.3  -4406.795 817.3  C -4405.157 817.3  -4403.87 818.587  -4403.87 820.225  C -4403.87 821.863  -4405.157 823.15  -4406.795 823.15  " fill-rule="nonzero" fill="#cccccc" stroke="none" />
    <path d="M -4426 849  L -4426 830.3  L -4418.25 821.8  L -4407.4 828.6  L -4401.2 826.9  L -4395 828.6  L -4395 849  L -4426 849  " fill-rule="nonzero" fill="#169bd5" stroke="none" />
  </g>
</svg>