<?xml version="1.0" encoding="utf-8"?>
<svg version="1.1" xmlns:xlink="http://www.w3.org/1999/xlink" width="63px" height="60px" xmlns="http://www.w3.org/2000/svg">
  <g transform="matrix(1 0 0 1 4509 -716 )">
    <path d="M -4509 716  L -4446 716  L -4446 776  L -4509 776  L -4509 716  " fill-rule="nonzero" fill="#cccccc" stroke="none" />
    <path d="M -4505 720  L -4450 720  L -4450 772  L -4505 772  L -4505 720  " fill-rule="nonzero" fill="#ffffff" stroke="none" />
    <path d="M -4471.74 734  C -4474.26 734  -4476.24 732.02  -4476.24 729.5  C -4476.24 726.98  -4474.26 725  -4471.74 725  C -4469.22 725  -4467.24 726.98  -4467.24 729.5  C -4467.24 732.02  -4469.22 734  -4471.74 734  " fill-rule="nonzero" fill="#cccccc" stroke="none" />
    <path d="M -4504 771  L -4504 744.05  L -4491 731.8  L -4472.8 743  L -4462.4 739.15  L -4452 743  L -4452 771  L -4504 771  " fill-rule="nonzero" fill="#169bd5" stroke="none" />
  </g>
</svg>