<?xml version="1.0" encoding="utf-8"?>
<svg version="1.1" xmlns:xlink="http://www.w3.org/1999/xlink" width="30px" height="30px" xmlns="http://www.w3.org/2000/svg">
  <g transform="matrix(1 0 0 1 -551 -115 )">
    <path d="M 566 116  C 573.84 116  580 122.16  580 130  C 580 137.84  573.84 144  566 144  C 558.16 144  552 137.84  552 130  C 552 122.16  558.16 116  566 116  Z " fill-rule="nonzero" fill="#ffff00" stroke="none" />
    <path d="M 566 116  C 573.84 116  580 122.16  580 130  C 580 137.84  573.84 144  566 144  C 558.16 144  552 137.84  552 130  C 552 122.16  558.16 116  566 116  Z " stroke-width="2" stroke="#ffffff" fill="none" />
  </g>
</svg>