<?xml version="1.0" encoding="utf-8"?>
<svg version="1.1" xmlns:xlink="http://www.w3.org/1999/xlink" width="30px" height="30px" xmlns="http://www.w3.org/2000/svg">
  <g transform="matrix(1 0 0 1 -1392 -190 )">
    <path d="M 1407 191  C 1414.84 191  1421 197.16  1421 205  C 1421 212.84  1414.84 219  1407 219  C 1399.16 219  1393 212.84  1393 205  C 1393 197.16  1399.16 191  1407 191  Z " fill-rule="nonzero" fill="#ffff00" stroke="none" />
    <path d="M 1407 191  C 1414.84 191  1421 197.16  1421 205  C 1421 212.84  1414.84 219  1407 219  C 1399.16 219  1393 212.84  1393 205  C 1393 197.16  1399.16 191  1407 191  Z " stroke-width="2" stroke="#555555" fill="none" />
  </g>
</svg>