<?xml version="1.0" encoding="utf-8"?>
<svg version="1.1" xmlns:xlink="http://www.w3.org/1999/xlink" width="29px" height="29px" xmlns="http://www.w3.org/2000/svg">
  <g transform="matrix(1 0 0 1 -14 -88 )">
    <path d="M 28.5 89  C 36.06 89  42 94.94  42 102.5  C 42 110.06  36.06 116  28.5 116  C 20.94 116  15 110.06  15 102.5  C 15 94.94  20.94 89  28.5 89  Z " fill-rule="nonzero" fill="#ffff00" stroke="none" />
    <path d="M 28.5 89  C 36.06 89  42 94.94  42 102.5  C 42 110.06  36.06 116  28.5 116  C 20.94 116  15 110.06  15 102.5  C 15 94.94  20.94 89  28.5 89  Z " stroke-width="2" stroke="#797979" fill="none" />
  </g>
</svg>