<?xml version="1.0" encoding="utf-8"?>
<svg version="1.1" xmlns:xlink="http://www.w3.org/1999/xlink" width="18px" height="25px" xmlns="http://www.w3.org/2000/svg">
  <g transform="matrix(1 0 0 1 -674 -858 )">
    <path d="M 12.181640625 11.279296875  C 13.060546875 10.4654947916667  13.5 9.48350694444444  13.5 8.33333333333333  C 13.5 7.18315972222222  13.060546875 6.201171875  12.181640625 5.38736979166667  C 11.302734375 4.57356770833333  10.2421875 4.16666666666667  9 4.16666666666667  C 7.7578125 4.16666666666667  6.697265625 4.57356770833333  5.818359375 5.38736979166667  C 4.939453125 6.201171875  4.5 7.18315972222222  4.5 8.33333333333333  C 4.5 9.48350694444444  4.939453125 10.4654947916667  5.818359375 11.279296875  C 6.697265625 12.0930989583333  7.7578125 12.5  9 12.5  C 10.2421875 12.5  11.302734375 12.0930989583333  12.181640625 11.279296875  Z M 15.36328125 2.44140625  C 17.12109375 4.06901041666667  18 6.03298611111111  18 8.33333333333333  C 18 9.51605902777778  17.806640625 10.4871961805556  17.419921875 11.2467447916667  L 11.021484375 23.8444010416667  C 10.833984375 24.2024739583333  10.5556640625 24.4845920138889  10.1865234375 24.6907552083333  C 9.8173828125 24.8969184027778  9.421875 25  9 25  C 8.578125 25  8.1826171875 24.8969184027778  7.8134765625 24.6907552083333  C 7.4443359375 24.4845920138889  7.171875 24.2024739583333  6.99609375 23.8444010416667  L 0.580078125 11.2467447916667  C 0.193359375 10.4871961805556  0 9.51605902777778  0 8.33333333333333  C 0 6.03298611111111  0.87890625 4.06901041666667  2.63671875 2.44140625  C 4.39453125 0.813802083333334  6.515625 0  9 0  C 11.484375 0  13.60546875 0.813802083333334  15.36328125 2.44140625  Z " fill-rule="nonzero" fill="#02a7f0" stroke="none" transform="matrix(1 0 0 1 674 858 )" />
  </g>
</svg>