<?xml version="1.0" encoding="utf-8"?>
<svg version="1.1" xmlns:xlink="http://www.w3.org/1999/xlink" width="42px" height="42px" xmlns="http://www.w3.org/2000/svg">
  <g transform="matrix(1 0 0 1 -603 -328 )">
    <path d="M 603 328  L 645 328  L 645 370  L 603 370  L 603 328  " fill-rule="nonzero" fill="#cccccc" stroke="none" />
    <path d="M 606 331  L 642 331  L 642 367  L 606 367  L 606 331  " fill-rule="nonzero" fill="#ffffff" stroke="none" />
    <path d="M 627.99 340.6  C 626.226 340.6  624.84 339.214  624.84 337.45  C 624.84 335.686  626.226 334.3  627.99 334.3  C 629.754 334.3  631.14 335.686  631.14 337.45  C 631.14 339.214  629.754 340.6  627.99 340.6  " fill-rule="nonzero" fill="#cccccc" stroke="none" />
    <path d="M 607 366  L 607 347.3  L 615.5 338.8  L 627.4 345.6  L 634.2 343.9  L 641 345.6  L 641 366  L 607 366  " fill-rule="nonzero" fill="#169bd5" stroke="none" />
  </g>
</svg>